<svg width="217" height="105" viewBox="0 0 217 105" fill="none" xmlns="http://www.w3.org/2000/svg">
<path d="M216.909 72.1722L201.965 51.93L215.619 33.5539H210.491L199.385 48.5458L188.28 33.5539H183.183L196.805 51.9617L181.893 72.2039H187.021L199.385 55.4408L211.781 72.2039H216.909" fill="#07C707"/>
<path d="M115.102 72.1722L100.189 51.93L113.812 33.5539H108.715L97.6096 48.5458L86.5039 33.5539H81.3758L95.0298 51.9617L80.0859 72.2039H85.214L97.6096 55.4408L109.974 72.2039H115.102" fill="#07C707"/>
<path d="M133.003 68.1238H121.583V54.0808H133.003C137.345 54.0808 142.504 55.251 142.504 60.786C142.504 67.1749 136.527 68.1238 133.003 68.1238ZM121.583 37.5707H133.003C136.086 37.5707 141.277 38.3298 141.277 43.7066C141.277 47.7551 138.257 50.1905 133.003 50.1905H121.583V37.5707ZM143.479 53.3849C142.661 52.6891 141.812 52.1514 140.931 51.7719C143.731 50.2537 145.587 47.3755 145.587 44.0545C145.587 41.5875 144.675 33.5539 132.972 33.5539H117.21V50.2221H111.956C111.264 51.1077 109.722 53.2268 109.124 54.0808H117.21V72.1722H132.972C141.529 72.1722 146.846 67.8391 146.846 60.8809C146.877 57.8445 145.713 55.251 143.479 53.3849Z" fill="#07C707"/>
<path d="M167.358 68.9461C159.021 68.9461 153.201 62.3358 153.201 52.8472C153.201 43.3587 159.021 36.7483 167.358 36.7483C175.664 36.7483 181.453 43.3587 181.453 52.8472C181.453 62.3041 175.664 68.9461 167.358 68.9461ZM167.358 32.6683C156.41 32.6683 148.796 40.9549 148.796 52.8472C148.796 64.7395 156.41 73.0262 167.358 73.0262C178.244 73.0262 185.857 64.7395 185.857 52.8472C185.857 40.9549 178.244 32.6683 167.358 32.6683Z" fill="#07C707"/>
<path d="M29.6302 84.5751C24.5998 84.0928 19.504 82.273 15.1206 79.3937C11.4496 76.982 10.6209 75.9954 10.6209 74.0149C10.6209 70.0466 14.9607 63.0894 22.3754 55.1674C26.5916 50.6656 32.4579 45.3892 33.0904 45.5281C34.3262 45.8058 44.1906 55.4963 47.8835 60.0492C53.728 67.2696 56.4177 73.1745 55.051 75.8054C54.0115 77.8078 47.5782 81.7176 42.8531 83.2158C38.9567 84.4582 33.8391 84.9843 29.6302 84.5751ZM5.67044 69.8932C2.62459 65.1868 1.08349 60.5461 0.334753 53.8446C0.087596 51.6303 0.174828 50.366 0.894492 45.8204C1.78862 40.1566 4.98713 33.6086 8.83987 29.5745C10.4827 27.8571 10.6281 27.8133 12.6272 28.4929C15.0552 29.3187 17.643 31.1165 21.663 34.7779L24.011 36.9118L22.7316 38.4977C16.778 45.8496 10.5046 56.2709 8.14202 62.7166C6.85535 66.2172 6.33922 69.7397 6.89169 71.2013C7.26243 72.1879 6.92077 71.8225 5.67044 69.8932ZM59.1727 70.6897C59.4708 69.2135 59.0928 66.4949 58.1986 63.7544C56.2723 57.8202 49.8098 46.7704 43.8781 39.265L42.0098 36.9045L44.0307 35.0337C46.6695 32.5928 48.5014 31.1311 50.4786 29.8961C52.0415 28.9168 54.2659 28.0544 55.2255 28.0544C55.8143 28.0544 57.8933 30.2249 59.5726 32.6001C62.175 36.2687 64.0868 40.7266 65.0536 45.36C65.6788 48.3563 65.7297 54.7655 65.1554 57.7472C64.6829 60.1954 63.6797 63.3744 62.7056 65.5376C61.9714 67.1526 60.1541 70.2878 59.3545 71.3109C58.9474 71.8225 58.9474 71.8225 59.1727 70.6897ZM30.1681 26.929C27.4276 25.5259 23.2041 24.0277 20.8706 23.6184C20.0492 23.4796 18.6607 23.3992 17.7666 23.4431C15.8402 23.5381 15.9275 23.4431 19.0169 21.9741C21.583 20.7537 23.7275 20.0375 26.6352 19.4236C29.9064 18.7293 36.049 18.722 39.2693 19.409C42.744 20.1471 46.8367 21.6818 49.1411 23.1069L49.8244 23.5308L48.2542 23.4504C45.1284 23.2896 40.5778 24.5612 35.6855 26.9582C34.2098 27.6817 32.9304 28.2591 32.8359 28.2372C32.7487 28.2225 31.542 27.6306 30.1681 26.929Z" fill="#07C707"/>
</svg>
