<svg width="68" height="105" viewBox="0 0 68 105" fill="none" xmlns="http://www.w3.org/2000/svg">
<path d="M50.3165 57.0737C50.1841 57.0101 45.2267 54.569 44.3458 54.2519C43.9861 54.1228 43.6009 53.9967 43.1911 53.9967C42.5217 53.9967 41.9594 54.3303 41.5213 54.9856C41.0261 55.7216 39.527 57.474 39.0638 57.9974C39.0034 58.0665 38.9208 58.1491 38.8713 58.1491C38.827 58.1491 38.0597 57.8332 37.8275 57.7323C32.5096 55.4223 28.4731 49.8672 27.9196 48.9305C27.8405 48.7958 27.8372 48.7346 27.8366 48.7346C27.856 48.6633 28.0348 48.4841 28.1271 48.3916C28.3971 48.1244 28.6897 47.7723 28.9727 47.4316C29.1067 47.2702 29.2409 47.1086 29.3727 46.9563C29.7834 46.4785 29.9662 46.1076 30.1781 45.678L30.2892 45.4547C30.8067 44.4266 30.3647 43.5589 30.2219 43.2787C30.1046 43.0443 28.0114 37.9924 27.7889 37.4617C27.2537 36.1809 26.5465 35.5846 25.5639 35.5846C25.4727 35.5846 25.5639 35.5846 25.1815 35.6007C24.7158 35.6204 22.1802 35.9542 21.0591 36.6609C19.8702 37.4104 17.8589 39.7997 17.8589 44.0016C17.8589 47.7833 20.2588 51.354 21.2891 52.712C21.3147 52.7462 21.3618 52.8158 21.43 52.9155C25.376 58.6783 30.2952 62.9491 35.2819 64.9412C40.0827 66.8589 42.3561 67.0805 43.6485 67.0805H43.6488C44.1919 67.0805 44.6266 67.0379 45.0101 67.0002L45.2534 66.977C46.9119 66.8299 50.5565 64.9414 51.3855 62.6376C52.0386 60.823 52.2108 58.8404 51.7763 58.1209C51.4787 57.6316 50.9658 57.3854 50.3165 57.0737Z" fill="#57CF47"/>
<path d="M34.6036 18C16.187 18 1.20408 32.8704 1.20408 51.1485C1.20408 57.0603 2.78618 62.8471 5.78326 67.9118L0.0467539 84.8334C-0.0601032 85.1489 0.0193773 85.4977 0.252741 85.7353C0.421195 85.9073 0.649702 86 0.883066 86C0.972481 86 1.06256 85.9865 1.15043 85.9585L18.7951 80.3516C23.6235 82.9314 29.0808 84.2932 34.6038 84.2932C53.0185 84.2934 67.9999 69.4246 67.9999 51.1485C67.9999 32.8704 53.0185 18 34.6036 18ZM34.6036 77.3883C29.4066 77.3883 24.3731 75.8877 20.0463 73.0484C19.9008 72.9528 19.7319 72.9038 19.5619 72.9038C19.472 72.9038 19.3819 72.9175 19.2943 72.9453L10.4554 75.755L13.3087 67.3369C13.401 67.0644 13.3549 66.764 13.1849 66.5317C9.88998 62.0296 8.14825 56.7103 8.14825 51.1485C8.14825 36.6779 20.016 24.9051 34.6033 24.9051C49.1889 24.9051 61.0553 36.6779 61.0553 51.1485C61.0556 65.6172 49.1893 77.3883 34.6036 77.3883Z" fill="#57CF47"/>
</svg>
