<svg width="112" height="105" viewBox="0 0 112 105" fill="none" xmlns="http://www.w3.org/2000/svg">
<g clip-path="url(#clip0_7320_295)">
<path d="M111.989 11.8201H-0.428589V73.4251H111.989V11.8201Z" fill="white"/>
<path d="M-0.428589 79.609H5.09939C6.00941 79.609 6.76041 79.7415 7.35139 80.0073C8.47309 80.5172 9.03419 81.4592 9.03419 82.8319C9.03419 83.5484 8.88379 84.1344 8.58248 84.59C8.28167 85.0461 7.86084 85.4115 7.31999 85.6889C7.79501 85.8791 8.15203 86.128 8.39207 86.4377C8.6321 86.7469 8.7658 87.2493 8.79314 87.9438L8.85087 89.5471C8.86759 90.0027 8.90607 90.3422 8.96684 90.5643C9.0666 90.9447 9.24284 91.1886 9.49655 91.2972V91.5656H7.47648C7.42128 91.463 7.37722 91.3296 7.3438 91.1672C7.31088 91.0039 7.28303 90.6893 7.26075 90.2232L7.16149 88.2281C7.12401 87.4474 6.83688 86.9241 6.3011 86.6573C5.99523 86.5114 5.51566 86.4382 4.86087 86.4382H1.21724V91.5661H-0.428589V79.609ZM4.92214 85.0864C5.67366 85.0864 6.26818 84.9345 6.70521 84.6303C7.14275 84.3266 7.36152 83.7789 7.36152 82.9863C7.36152 82.1344 7.05565 81.5538 6.4439 81.2441C6.11626 81.0818 5.67923 81.0006 5.1318 81.0006H1.21876V85.0864H4.92214Z" fill="white"/>
<path d="M11.7682 79.6118H20.5934V81.0766H13.374V84.7058H20.0465V86.0899H13.374V90.1433H20.717V91.5678H11.7682V79.6118Z" fill="white"/>
<path d="M31.5257 80.4804C32.3664 81.278 32.8323 82.1842 32.9254 83.1989H31.3196C31.1403 82.4287 30.7843 81.8182 30.2506 81.3681C29.7168 80.917 28.9668 80.6925 28.0026 80.6925C26.8262 80.6925 25.8762 81.1062 25.1531 81.9342C24.4299 82.7628 24.0678 84.0324 24.0678 85.7427C24.0678 87.1433 24.3945 88.2805 25.0477 89.1523C25.701 90.0241 26.6753 90.4598 27.9712 90.4598C29.1643 90.4598 30.0723 90.0017 30.6957 89.0841C31.0264 88.6006 31.273 87.9663 31.4356 87.1786H33.0414C32.8996 88.4383 32.4302 89.4934 31.6336 90.3453C30.679 91.3709 29.3917 91.8843 27.7712 91.8843C26.3745 91.8843 25.2017 91.4635 24.2522 90.6211C23.0028 89.5083 22.3779 87.7895 22.3779 85.4658C22.3779 83.7013 22.8474 82.2539 23.7852 81.1247C24.7996 79.8968 26.1993 79.2844 27.9829 79.2844C29.5051 79.2844 30.6861 79.6832 31.5257 80.4804Z" fill="white"/>
<path d="M45.1917 81.3218C45.9979 82.3799 46.4005 83.7337 46.4005 85.3832C46.4005 87.1687 45.9396 88.6534 45.018 89.8359C43.9363 91.225 42.3938 91.9201 40.3904 91.9201C38.5192 91.9201 37.0486 91.3117 35.978 90.0968C35.0235 88.9247 34.5454 87.4425 34.5454 85.6521C34.5454 84.0354 34.9541 82.6517 35.7709 81.5011C36.8197 80.0253 38.3703 79.2874 40.4233 79.2874C42.57 79.2874 44.1596 79.9656 45.1917 81.3218ZM43.7388 88.9432C44.3875 87.92 44.7116 86.743 44.7116 85.4116C44.7116 84.0055 44.3379 82.8728 43.5899 82.0154C42.8419 81.157 41.82 80.7278 40.5231 80.7278C39.2646 80.7278 38.2382 81.153 37.4431 82.003C36.6485 82.8534 36.251 84.1066 36.251 85.7626C36.251 87.088 36.5918 88.2053 37.2734 89.1149C37.9551 90.0246 39.0606 90.4792 40.5889 90.4792C42.0403 90.4792 43.0901 89.9673 43.7388 88.9432Z" fill="white"/>
<path d="M48.5574 79.609H54.0854C54.9959 79.609 55.7464 79.7415 56.3369 80.0073C57.4591 80.5172 58.0192 81.4592 58.0192 82.8319C58.0192 83.5484 57.8688 84.1344 57.5685 84.59C57.2676 85.0461 56.8468 85.4115 56.306 85.6889C56.781 85.8791 57.138 86.128 57.3786 86.4377C57.6181 86.7469 57.7518 87.2493 57.7796 87.9438L57.8379 89.5471C57.8536 90.0027 57.8926 90.3422 57.9533 90.5643C58.0521 90.9447 58.2293 91.1886 58.483 91.2972V91.5656H56.4635C56.4083 91.463 56.3642 91.3296 56.3308 91.1672C56.2979 91.0039 56.2705 90.6893 56.2482 90.2232L56.149 88.2281C56.111 87.4474 55.8244 86.9241 55.2881 86.6573C54.9822 86.5114 54.5021 86.4382 53.8479 86.4382H50.2042V91.5661H48.5569V79.609H48.5574ZM53.9081 85.0864C54.6596 85.0864 55.2537 84.9345 55.6917 84.6303C56.1292 84.3266 56.348 83.7789 56.348 82.9863C56.348 82.1344 56.0416 81.5538 55.4299 81.2441C55.1022 81.0818 54.6652 81.0006 54.1178 81.0006H50.2047V85.0864H53.9081Z" fill="white"/>
<path d="M60.673 79.609H65.5345C67.1844 79.609 68.4646 80.1915 69.3741 81.3586C70.1859 82.4112 70.591 83.7595 70.591 85.4041C70.591 86.6742 70.351 87.8214 69.8724 88.847C69.0277 90.6594 67.5764 91.5656 65.5173 91.5656H60.673V79.609ZM65.2114 90.1819C65.7558 90.1819 66.204 90.1256 66.5549 90.0106C67.1793 89.7995 67.6928 89.3922 68.0919 88.7903C68.4114 88.3078 68.6398 87.6889 68.7801 86.9346C68.8616 86.484 68.9016 86.0663 68.9016 85.6799C68.9016 84.1991 68.6084 83.0485 68.024 82.2285C67.4376 81.4099 66.4942 81.0001 65.1937 81.0001H62.337V90.1809H65.2114V90.1819Z" fill="white"/>
<path d="M73.2224 79.609H74.887V91.5656H73.2224V79.609Z" fill="white"/>
<path d="M77.5579 79.6091H79.4984L85.5637 89.2688V79.6091H87.1361V91.5656H85.2862L79.1318 81.9163V91.5656H77.5584L77.5579 79.6091Z" fill="white"/>
<path d="M97.8952 79.9526C99.0868 80.5765 99.8155 81.6698 100.081 83.2327H98.4502C98.2563 82.3594 97.8527 81.7231 97.2424 81.3238C96.6317 80.925 95.8615 80.7258 94.9322 80.7258C93.8292 80.7258 92.9005 81.1416 92.1475 81.9711C91.3939 82.8021 91.0166 84.0388 91.0166 85.6824C91.0166 87.1044 91.3276 88.2615 91.9494 89.1548C92.5718 90.0475 93.5852 90.4936 94.9925 90.4936C96.0681 90.4936 96.9599 90.1799 97.6658 89.5531C98.3717 88.9262 98.7323 87.913 98.749 86.5134H94.9403V85.1706H100.281V91.5681H99.221L98.824 90.0301C98.2745 90.6315 97.7889 91.0507 97.3655 91.2833C96.6545 91.6846 95.7501 91.8862 94.6542 91.8862C93.2362 91.8862 92.0183 91.4277 90.9974 90.51C89.8843 89.3594 89.3278 87.7806 89.3278 85.7725C89.3278 83.7705 89.8711 82.1777 90.9599 80.9942C91.993 79.8654 93.3319 79.3013 94.9747 79.3013C96.1 79.3008 97.0738 79.5184 97.8952 79.9526Z" fill="white"/>
<path d="M104.073 87.71C104.11 88.3881 104.266 88.9383 104.543 89.3615C105.069 90.1547 105.997 90.5505 107.326 90.5505C107.921 90.5505 108.464 90.4639 108.953 90.2901C109.899 89.9535 110.372 89.3516 110.372 88.4827C110.372 87.8315 110.172 87.3679 109.771 87.0911C109.365 86.8197 108.729 86.5842 107.862 86.3831L106.267 86.0166C105.224 85.7781 104.486 85.5152 104.053 85.227C103.304 84.7281 102.93 83.9817 102.93 82.9889C102.93 81.9144 103.298 81.0327 104.034 80.3436C104.77 79.655 105.812 79.3104 107.16 79.3104C108.4 79.3104 109.455 79.6127 110.322 80.2176C111.19 80.8225 111.623 81.79 111.623 83.1194H110.075C109.995 82.4791 109.826 81.9881 109.567 81.6456C109.085 81.0222 108.267 80.71 107.114 80.71C106.183 80.71 105.514 80.9102 105.105 81.312C104.697 81.7143 104.494 82.1803 104.494 82.7121C104.494 83.2986 104.735 83.7268 105.217 83.9986C105.532 84.1724 106.246 84.389 107.358 84.6499L109.011 85.0323C109.808 85.2175 110.423 85.4694 110.856 85.7896C111.605 86.3487 111.979 87.1603 111.979 88.2233C111.979 89.5477 111.501 90.4947 110.546 91.0643C109.59 91.6344 108.481 91.9197 107.217 91.9197C105.741 91.9197 104.586 91.5393 103.752 90.78C102.918 90.0257 102.508 89.003 102.525 87.7115H104.073V87.71Z" fill="white"/>
<path d="M10.2379 21.2501H28.2458L35.2849 31.9052L42.0759 21.2427H60.408L43.9496 41.4001L60.3877 63.3127L42.5823 63.3624L34.5304 51.7963L26.715 63.3624H8.65283L25.7021 41.3837L10.2379 21.2501Z" fill="black"/>
<path d="M65.8162 21.2427L65.9174 63.2977L101.771 63.3624L101.726 51.0146H82.9278V21.2427H65.8162Z" fill="black"/>
</g>
<defs>
<clipPath id="clip0_7320_295">
<rect width="112" height="105" fill="white"/>
</clipPath>
</defs>
</svg>
