<svg width="150" height="105" viewBox="0 0 150 105" fill="none" xmlns="http://www.w3.org/2000/svg">
<g clip-path="url(#clip0_7320_341)">
<path d="M141.624 58.1627L139.673 56.2112L104.093 60.5764V54.1371L121.122 52.0454V34.2358L146.868 30.7081V13.002L138.819 4.95152L136.868 3L129.975 3.84518V5.9269L128.127 4.07284L119.785 5.09772V7.74746L119.404 7.36675C118.198 6.16294 116.492 5.57513 114.199 5.57513C113.405 5.57975 112.612 5.6357 111.825 5.74264C108.665 6.14848 106.273 7.26548 104.681 9.0731L102.799 7.18782L95.6711 8.05584V11.9391L94.165 10.433L92.2135 8.48223L81.9533 9.74391L80.7822 14.1815L79.0264 12.4135C78.4026 11.8379 77.668 11.3956 76.8674 11.1137C76.0668 10.8318 75.2171 10.7163 74.3703 10.7741C73.5991 10.7886 72.8295 10.8491 72.0655 10.9553L64.8084 11.8431L54.9929 13.0508L53.9848 16.136L53.2995 15.4508L51.3518 13.5L48.4409 13.8594L42.482 14.5911V18.3396L41.0939 16.9515L39.1424 15L28.8906 16.2685L27.4683 21.731L27.2733 21.5459L25.3218 19.599C23.6909 17.9505 21.0952 17.1503 17.3878 17.1503C15.9305 17.1503 13.3622 17.4723 11.9817 17.6459C4.2731 18.6091 0.0236041 22.6203 0.0213198 28.9515L0 91.0431L8.05127 99.0959L10.0028 101.047L69.5772 93.7439L87.9525 99.9061V91.4901L145.275 84.4652V78.5726C146.516 75.5794 149.517 67.8015 149.547 67.7254L150.004 66.5429L141.624 58.1627Z" fill="#262626"/>
<path d="M110.528 26.4443L98.5042 27.9191V32.1473L102.333 31.6768V42.6245L106.573 42.1037V31.1567L110.529 30.6709L110.528 26.4443Z" fill="white"/>
<path d="M47.3284 43.3212L48.9578 35.9887L49.1025 35.9574L50.5873 42.9214L47.3284 43.3212ZM51.9137 48.8118L57.4065 48.1387L53.0824 33.5042L45.105 34.4795L41.0269 50.1519L45.8878 49.5549L46.5822 46.5541L51.3236 45.9686H51.2725L51.9137 48.8118Z" fill="white"/>
<path d="M97.3219 38.7945C97.3219 35.8676 95.8798 34.7476 91.7704 34.6425C88.9448 34.5778 88.625 34.0158 88.625 33.2963C88.625 32.6544 89.0818 32.1762 90.5491 31.9912C90.8408 31.9513 91.1348 31.9297 91.4293 31.9265C92.4046 31.9265 92.9392 32.2638 92.876 33.3937L97.0851 32.8554C97.2663 29.5615 95.7838 28.5153 92.8798 28.5153C92.0527 28.5247 91.227 28.5852 90.4074 28.6965C85.7986 29.2821 83.7534 31.2153 83.7534 34.0623C83.7534 36.6671 84.8757 38.0681 89.464 38.113C92.0689 38.1465 92.5295 38.6689 92.5295 39.5316C92.5295 40.2709 92.0727 40.7316 90.3831 40.9425C90.1196 40.976 89.6612 41.0422 89.4503 41.0422C87.7348 41.0422 87.6945 40.0272 87.731 39.4432L83.5128 39.9899C83.1595 43.4712 84.9001 44.5029 87.8529 44.5029C88.7793 44.4751 89.7036 44.3963 90.6214 44.2668C95.4701 43.6577 97.3143 41.7305 97.3143 38.8036" fill="white"/>
<path d="M41.445 85.7537C46.2937 85.1446 48.1379 83.2174 48.1379 80.2905C48.1379 77.3636 46.6958 76.2436 42.5864 76.14C39.7607 76.0738 39.4409 75.5134 39.4409 74.7915C39.4409 74.1497 39.8978 73.6715 41.365 73.488C41.6568 73.4477 41.9508 73.4255 42.2453 73.4217C43.2206 73.4217 43.7559 73.759 43.6919 74.889L47.9011 74.3606C48.0823 71.0666 46.6013 70.0204 43.6958 70.0204C42.8687 70.0298 42.043 70.0903 41.2234 70.2017C36.6145 70.7872 34.5694 72.7227 34.5694 75.5674C34.5694 78.1722 35.6917 79.5755 40.28 79.6182C42.8849 79.6517 43.3455 80.174 43.3455 81.0367C43.3455 81.7783 42.8886 82.2367 41.1991 82.4491C40.9356 82.4827 40.4772 82.5466 40.2663 82.5466C38.5508 82.5466 38.5105 81.5339 38.547 80.9476L34.3402 81.4806C33.9869 84.9618 35.7275 85.992 38.6803 85.992C39.6068 85.9653 40.5311 85.8865 41.4488 85.756" fill="white"/>
<path d="M134.7 74.126V69.572C135.781 67.0022 139.1 58.4164 139.1 58.4164L134.271 59.0019C134.076 59.8075 133.598 61.5679 133.037 64.0273C132.813 64.9486 132.58 65.707 132.356 66.54L132.162 66.5689C131.873 65.6301 131.035 63.0565 129.908 59.5326L124.926 60.157C124.926 60.157 128.128 67.443 129.342 70.2176V74.7801L134.7 74.126Z" fill="white"/>
<path d="M131.316 20.9772L136.279 20.3681V5.19525L132.043 5.71454V11.5447L132.29 13.931L132.165 13.947L127.539 6.26809L121.851 6.96632V22.1369L126.095 21.6161V14.5166L125.894 12.2255L126.019 12.2095L131.316 20.9772Z" fill="white"/>
<path d="M70.5951 21.2369L69.3913 21.3853V16.9181L70.3667 16.7993L71.6893 16.6371C71.9744 16.5964 72.2618 16.5735 72.5497 16.5686C73.4086 16.5686 74.2606 16.8572 74.2606 18.313C74.2606 20.7853 72.7637 20.9688 70.5944 21.2399M78.8642 17.3826C78.8642 13.6188 76.6941 12.8734 74.4738 12.8734C73.718 12.893 72.9641 12.9581 72.2162 13.0683L65.1487 13.9272V29.1024L69.3906 28.5815V24.9359C75.0007 24.2452 78.8657 23.7648 78.8657 17.3787" fill="white"/>
<path d="M50.7061 84.4387L62.7708 82.9577V79.3227L54.9464 80.2828V77.5082L62.4586 76.5869V73.4316L54.9464 74.3529V72.297L62.7708 71.3369V67.7864L50.7061 69.2673V84.4387Z" fill="white"/>
<path d="M119.816 60.7813L115.575 61.3021V76.4734L126.483 75.1349V71.474L119.815 72.323L119.816 60.7813Z" fill="white"/>
<path d="M57.7486 30.0092L61.9889 29.4884V14.3171L56.5645 14.9826L53.8052 23.4587L53.5866 23.4861L52.9973 21.498L50.7435 15.6991L44.5364 16.4605V31.631L48.7767 31.1102V24.0633L48.578 21.8681L48.7006 21.8521L52.1369 30.7013L54.2689 30.4402L57.7653 20.7404L57.91 20.7229L57.7463 23.4937L57.7486 30.0092Z" fill="white"/>
<path d="M32.7815 27.0008L34.4109 19.6661L34.5571 19.6348L36.0403 26.611L32.7815 27.0008ZM37.3706 32.5013L42.8528 31.8282L38.5424 17.1937L30.552 18.1691L26.4746 33.8384L31.3332 33.2452L32.0299 30.2346L36.769 29.6506H36.7241L37.3706 32.5013Z" fill="white"/>
<path d="M85.8555 20.458L87.4864 13.1232L87.6311 13.092L89.1159 20.0582L85.8555 20.458ZM90.453 25.9958L95.9497 25.3204L91.6255 10.6859L83.6253 11.6613L79.5471 27.3344L84.4019 26.7489L85.0986 23.6834L89.84 23.0978H89.7974L90.453 25.9958Z" fill="white"/>
<path d="M87.7197 73.8024L89.4192 66.4699L90.9802 73.4026L87.7197 73.8024ZM92.3149 79.3303L97.8093 78.6549L93.4852 64.0204L85.4857 64.995L81.4053 80.6597L86.2464 80.0742L86.9705 77.0285L91.7119 76.443H91.6669L92.3149 79.3303Z" fill="white"/>
<path d="M69.2192 64.3051L74.1875 63.696V48.5255L69.9494 49.0463V54.8749L70.1969 57.2353L70.072 57.2491L65.4456 49.5998L59.7578 50.298V65.4694L64.002 64.9463V57.8475L63.8032 55.5564L63.9258 55.5404L69.2192 64.3051Z" fill="white"/>
<path d="M76.4504 45.7988L81.4187 45.1897V30.0191L77.1806 30.5399V36.3686L77.4281 38.729L77.3055 38.7442L72.6768 31.095L66.989 31.7932V46.9645L71.2332 46.4414V39.345L71.0344 37.0524L71.157 37.0386L76.4504 45.7988Z" fill="white"/>
<path d="M2.0726 72.559L25.2282 69.7098V64.5275L8.7495 66.5643L8.8858 56.5486L2.07031 57.3747C2.09772 59.244 2.29265 60.0808 2.07031 72.3351L2.0726 72.559Z" fill="white"/>
<path d="M18.7613 28.3798C18.5489 29.5509 17.0055 30.8285 14.3146 31.1704C14.0451 31.2039 13.6065 31.2542 13.1969 31.2991L12.3464 31.3965C9.90982 31.7011 8.33063 30.4828 8.33063 28.3509C8.33063 25.7674 9.90144 24.4288 13.4253 24.0108L13.6202 23.9872C14.1761 23.9209 15.6494 23.7435 15.9441 23.7435C16.367 23.6942 16.7954 23.732 17.2032 23.8544C17.611 23.9768 17.9894 24.1814 18.3151 24.4554C18.4401 24.6022 18.533 24.7734 18.5881 24.9582C18.6431 25.1429 18.6591 25.337 18.6349 25.5283L25.2966 24.6656C25.3596 23.3881 24.9332 22.1347 24.1042 21.1608C22.8669 19.8595 20.703 19.2267 17.4951 19.2267C16.1588 19.2267 13.573 19.5526 12.3304 19.7087C7.64764 20.2943 2.07251 22.4011 2.07251 29.0902C2.07251 34.1437 4.6088 36.6009 9.81921 36.6009C10.5433 36.6009 12.0068 36.4059 12.9745 36.2887L13.3042 36.2476C19.158 35.5082 25.1527 33.8925 25.2966 27.5293L18.7613 28.3798Z" fill="white"/>
<path d="M13.4437 42.0435L15.8802 47.4892L10.6119 48.1371L13.4437 42.0435ZM8.76091 52.3851C8.88807 52.1064 8.98934 51.8696 9.05178 51.7394L17.1708 50.742L18.1812 52.9501L24.7805 52.1399L18.9525 37.6882L8.65355 38.9529L1.30127 55.0273L7.93553 54.2179C8.88959 52.0988 8.74721 52.4171 8.76091 52.3836" fill="white"/>
<path d="M17.5386 73.3394L14.6117 79.3547C14.5767 79.427 13.8137 80.9392 13.414 81.9268C13.0104 81.0252 12.3351 79.7003 12.3016 79.6379C12.3016 79.6379 10.35 75.8171 9.63659 74.442L9.57415 74.3194L2.1008 75.2331L2.06958 90.3922L7.29293 89.7831V83.3483C7.29293 83.3331 7.17034 82.0882 7.09801 81.0755C7.52136 81.9892 8.1008 83.0445 8.13202 83.1009L11.5858 89.4443L15.1097 89.011L19.012 81.5963C19.012 81.5849 19.3866 80.7184 19.7239 79.8405C19.6866 80.3377 19.6592 80.8303 19.6325 81.3427L19.6051 81.8209V88.2778L25.2328 87.5849L25.2046 72.4143L17.5386 73.3394Z" fill="white"/>
<path d="M32.1647 86.7115V71.544L27.7058 72.0922V87.2651L32.1647 86.7115Z" fill="white"/>
<path d="M32.1647 68.8516V53.6788L27.7058 54.227V69.3983L32.1647 68.8516Z" fill="white"/>
<path d="M56.9247 65.806V50.6346L52.4658 51.1829V66.3542L56.9247 65.806Z" fill="white"/>
<path d="M63.7294 47.3658V32.193L59.2705 32.7412V47.9125L63.7294 47.3658Z" fill="white"/>
<path d="M102.194 24.5521V9.3808L97.7351 9.9275V25.1003L102.194 24.5521Z" fill="white"/>
<path d="M72.4096 73.6151C71.4456 73.7285 70.3294 73.8884 69.6586 73.9684V70.1011C70.5403 69.996 71.7662 69.8278 72.156 69.779C72.4031 69.7452 72.6521 69.7269 72.9015 69.7242C73.8867 69.7242 74.3413 70.124 74.3413 71.4336C74.3782 71.7076 74.3556 71.9864 74.2751 72.2509C74.1946 72.5154 74.058 72.7594 73.8747 72.9664C73.6914 73.1734 73.4657 73.3385 73.2128 73.4505C72.96 73.5624 72.686 73.6185 72.4096 73.6151ZM76.6149 81.2582C77.7738 81.1097 79.6042 80.8912 79.6042 80.8912C78.7575 76.1948 78.4081 75.2986 76.1702 75.1113C76.1801 75.0199 76.1915 75.0039 76.1938 74.9552C77.9717 74.3696 79.1383 72.6511 79.1383 70.3577C79.1383 67.6257 77.4898 66.3983 74.6756 66.3983C74.2004 66.4001 73.7258 66.4321 73.2548 66.4943L65.4182 67.4696V82.6425L69.6601 82.1095V76.9676C69.6601 76.9676 71.2522 76.7727 71.6702 76.7255C72.0189 76.6788 72.37 76.6521 72.7218 76.6455C73.2913 76.6455 73.7619 76.8404 73.94 77.7366C74.1022 78.5521 74.2758 79.4635 74.4243 80.1732C74.6192 81.1486 75.1362 81.3321 75.6715 81.3321C75.9875 81.3251 76.3027 81.2997 76.6157 81.2559" fill="white"/>
<path d="M119.393 12.6899C119.342 8.90415 117.43 7.66455 114.305 7.66455C113.593 7.67035 112.883 7.72121 112.178 7.81683C106.906 8.49678 104.393 11.231 104.393 16.5244C104.393 21.3678 106.436 23.7633 110.78 23.7633C111.206 23.7633 111.654 23.7397 112.122 23.6948C119.01 23.0217 119.666 18.4904 119.342 14.2059C117.231 14.4907 111.927 15.1562 111.927 15.1562V17.8295C111.927 17.8295 114.22 17.5326 115.16 17.4161C115.042 19.0668 113.599 19.8321 112.097 20.0247C111.923 20.0474 111.748 20.0591 111.573 20.0597C109.84 20.0597 109.073 18.7653 109.073 15.9481C109.073 12.6739 110.215 11.5927 112.097 11.3506C112.33 11.3192 112.565 11.3029 112.8 11.3019C114.269 11.3019 114.88 12.0397 114.751 13.2922L119.408 12.6968" fill="white"/>
<path d="M103.85 65.7214C104.728 65.6125 105.624 65.5143 106.424 65.4168C106.635 65.3873 106.848 65.3716 107.062 65.3696C107.889 65.3696 108.25 65.6856 108.25 66.5521C108.25 67.7757 107.665 68.3491 106.365 68.5318C105.604 68.6278 104.771 68.7153 103.852 68.8303L103.85 65.7214ZM106.447 74.1336C105.706 74.2272 104.834 74.3445 103.859 74.4458V71.3239C104.793 71.209 105.642 71.1077 106.395 71.0118C106.613 70.9824 106.833 70.9669 107.053 70.9653C107.966 70.9653 108.36 71.3247 108.36 72.2826C108.36 73.5252 107.818 73.9577 106.436 74.1283M99.6068 78.4212L108.163 77.3795C111.73 76.9311 113.256 75.4417 113.256 72.677C113.256 70.3356 112.281 69.3991 110.226 69.3991H109.89V69.2628C112.307 68.7108 113.074 67.6455 113.074 65.4907C113.074 63.0298 111.806 62.0955 109.472 62.0955C108.968 62.1078 108.465 62.1508 107.966 62.2242L99.6045 63.2506L99.6068 78.4212Z" fill="white"/>
<path d="M39.8065 40.5443C39.7555 36.7585 37.8435 35.5189 34.7194 35.5189C34.0063 35.5245 33.2942 35.5754 32.5874 35.6712C27.3192 36.3466 24.7981 39.0801 24.7981 44.3758C24.7981 49.2169 26.841 51.6146 31.1849 51.6146C31.6105 51.6146 32.059 51.591 32.5273 51.5446C39.4151 50.8715 40.0707 46.3402 39.7471 42.0573C37.6357 42.342 32.3324 43.0075 32.3324 43.0075V45.6717C32.3324 45.6717 34.625 45.3748 35.5676 45.2583C35.4466 46.909 34.0067 47.6742 32.5022 47.8669C32.3282 47.8896 32.153 47.9013 31.9775 47.9019C30.2445 47.9019 29.4778 46.6075 29.4778 43.7902C29.4778 40.5161 30.6199 39.4334 32.5022 39.1928C32.7351 39.1614 32.9699 39.1451 33.2049 39.144C34.6745 39.144 35.2851 39.8819 35.1565 41.1344C37.1529 40.8809 38.5829 40.6935 39.8126 40.539" fill="white"/>
<path d="M91.4506 53.3742C89.3392 53.659 84.0359 54.3245 84.0359 54.3245V56.9895C84.0359 56.9895 86.3285 56.6925 87.2689 56.576C87.1501 58.2268 85.708 58.992 84.2057 59.1846C84.031 59.2075 83.855 59.2192 83.6788 59.2197C81.9542 59.2197 81.1737 57.9253 81.1737 55.1027C81.1737 51.8286 82.3159 50.7458 84.1981 50.5037C84.4312 50.4739 84.6659 50.4584 84.9009 50.4572C86.3704 50.4572 86.9811 51.1951 86.8524 52.4476C88.8488 52.194 90.2788 52.0067 91.5062 51.8522C91.4575 48.0664 89.5455 46.8268 86.4191 46.8268C85.7078 46.8325 84.9974 46.8834 84.2925 46.9791C79.0242 47.6544 76.5032 50.3857 76.5032 55.6836C76.5032 60.5248 78.5445 62.9225 82.89 62.9225C83.3154 62.9225 83.7628 62.8996 84.2324 62.8539C91.1202 62.1808 91.7704 57.6481 91.4522 53.3651" fill="white"/>
<path d="M42.5376 64.4651C41.4076 59.8205 40.7246 57.2613 39.6571 52.7689L34.1665 53.442L38.502 68.0765L46.4574 67.1012L50.5371 51.4288L45.6784 52.0258C45.0091 54.9139 43.7444 59.9111 42.6952 64.4263C42.6474 64.4414 42.5985 64.4526 42.549 64.4598" fill="white"/>
<path d="M41.1038 25.9044L41.1327 26.0042L41.1837 25.9981L41.1723 25.8945L41.1038 25.9044Z" fill="#262626"/>
<path d="M41.0862 25.9067L41.0976 26.008L41.1326 26.0042L41.1037 25.9044L41.0862 25.9067Z" fill="#DFDFDF"/>
<path d="M42.0032 28.9326L42.0093 28.9813L42.0253 29.0338L42.0915 29.0262L42.0801 28.9227L42.0032 28.9326Z" fill="#262626"/>
<path d="M42.0167 29.0361H42.0243L42.0083 28.9836L42.0167 29.0361Z" fill="#DFDFDF"/>
</g>
<defs>
<clipPath id="clip0_7320_341">
<rect width="150" height="105" fill="white"/>
</clipPath>
</defs>
</svg>
