<?xml version="1.0" encoding="UTF-8"?>
<svg id="Layer_1" xmlns="http://www.w3.org/2000/svg" xmlns:xlink="http://www.w3.org/1999/xlink" version="1.1" viewBox="0 0 255 105">
  <!-- Generator: Adobe Illustrator 29.5.1, SVG Export Plug-In . SVG Version: 2.1.0 Build 141)  -->
  <defs>
    <style>
      .st0 {
        fill: none;
      }

      .st1 {
        mask: url(#mask);
      }

      .st2 {
        fill: #fff;
      }

      .st3 {
        clip-path: url(#clippath);
      }
    </style>
    <clipPath id="clippath">
      <rect class="st0" width="255" height="105"/>
    </clipPath>
    <mask id="mask" x="0" y="36" width="255" height="32.3" maskUnits="userSpaceOnUse">
      <g id="mask0_7320_380">
        <path class="st2" d="M0,68.3h255v-32.3H0v32.3Z"/>
      </g>
    </mask>
  </defs>
  <g class="st3">
    <g class="st1">
      <path d="M201.8,43.1h9.2v24.2h6.7v-24.2h9.2v-6.2h-25.1v6.2ZM98.7,55.7l-14.2-18.7h-6.2v30.3h6.6v-19.3l14.7,19.3h5.7v-30.3h-6.6v18.7ZM155.9,56.5h8.8c-.4,2.3-2.7,5.7-8.3,5.7s-10-4.4-10-10,4.3-10.1,10.1-10.1,8.5,4.6,8.6,4.8l5.2-3.2c-3-4.9-8.1-7.7-13.8-7.7-9.1,0-16.4,7.2-16.4,16.1s7.1,16.2,16.2,16.2,15.1-6.1,15.1-14.3v-3.5h-15.4v6ZM127.5,49.9c-4.4-1.6-8.7-2.2-8.7-5.1s1.8-3,5.5-3,7.7,1.6,10.4,3.1v-6.5c-3.7-1.5-7.2-2.4-10.8-2.4-7.3,0-12.3,3.7-12.3,9.1s5,8,8.5,9.3c4.4,1.6,8.6,2.2,8.6,5.2s-2,3-5.8,3c-3.5,0-7.7-1.6-10.4-3.1v6.5c3.8,1.6,7.3,2.4,10.9,2.4,7.4,0,12.5-3.7,12.5-9.1s-4.9-8-8.4-9.3ZM56.1,62c-5.3,0-9.5-4.3-9.5-9.8s4.3-9.8,9.7-9.8,9.6,4.3,9.6,9.7-4.2,9.9-9.7,9.9ZM56.2,36c-8.8,0-16,7.2-16,16s7.1,16.3,15.8,16.3,16.3-7.1,16.3-16.3-7.2-16-16.1-16ZM6.7,37H0v30.3h21.8v-6.1H6.7v-24.3ZM252.7,61.4h-14.2v-6.4h13c0-1.1-.2-2.1-.2-3.2s0-1.8.1-2.7h-13v-6.2h14c.6-2.1,1.3-4.1,2.2-5.9h-22.9v30.3h23.1c-.9-1.9-1.7-3.9-2.3-5.9ZM27.2,67.3h6.7v-30.3h-6.7v30.3ZM184.1,55.8l4.5-11,4.5,11h-9ZM185.5,37l-12.9,30.4h6.8l2.4-6h13.5l2.4,6h7l-12.9-30.3h-6.3Z"/>
    </g>
  </g>
</svg>