<svg width="86" height="105" viewBox="0 0 86 105" fill="none" xmlns="http://www.w3.org/2000/svg">
<path fill-rule="evenodd" clip-rule="evenodd" d="M84.3921 68.6533C82.7437 70.6415 78.707 72.0593 78.707 72.0593L48.6746 82.3753V74.7679L70.7763 67.237C73.2844 66.3774 73.6695 65.1628 71.6309 64.5248C69.5962 63.8852 65.9113 64.0685 63.4015 64.9318L48.6746 69.8918V61.9963L49.5237 61.7217C49.5237 61.7217 53.779 60.2815 59.7632 59.6475C65.7469 59.0172 73.0735 59.7335 78.8254 61.8187C85.3076 63.7776 86.0379 66.665 84.3921 68.6533ZM51.5338 55.6988V36.243C51.5338 33.9582 51.0928 31.855 48.851 31.2594C47.1341 30.7334 46.069 32.2576 46.069 34.5408V83.2627L32.3292 79.0923V21C38.1711 22.0369 46.6825 24.4888 51.2577 25.9637C62.8937 29.7841 66.8388 34.5391 66.8388 45.2528C66.8388 55.6951 60.0985 59.6528 51.5338 55.6988ZM7.1179 73.9726C0.463166 72.1803 -0.64411 68.4463 2.38886 66.2951C5.1922 64.3089 9.95958 62.8136 9.95958 62.8136L29.6601 56.1147V63.7519L15.4832 68.6035C12.9789 69.4628 12.5938 70.6794 14.629 71.317C16.6654 71.9546 20.352 71.7733 22.8601 70.912L29.6601 68.5522V75.3847C29.2289 75.4581 28.7483 75.5314 28.3036 75.6027C21.5014 76.6657 14.257 76.2224 7.1179 73.9726ZM80.0154 76.9977C80.876 76.9977 81.6825 77.3163 82.29 77.9047C82.5897 78.1892 82.8273 78.5278 82.9891 78.9009C83.1509 79.2739 83.2336 79.674 83.2324 80.0779C83.2339 80.4818 83.1514 80.8819 82.9896 81.255C82.8278 81.6282 82.59 81.9667 82.29 82.2511C81.9927 82.5387 81.6384 82.7667 81.2478 82.9218C80.8573 83.0769 80.4383 83.156 80.0154 83.1543C79.5926 83.1557 79.1737 83.0766 78.7832 82.9215C78.3928 82.7664 78.0385 82.5385 77.7412 82.2511C77.4414 81.9667 77.2038 81.628 77.0423 81.2549C76.8808 80.8818 76.7986 80.4817 76.8005 80.0779C76.8005 78.3809 78.2413 76.9977 80.0154 76.9977ZM77.3407 80.0779C77.3407 80.7611 77.6185 81.4044 78.1246 81.8844C78.3716 82.1236 78.6661 82.3133 78.9908 82.4424C79.3155 82.5714 79.6638 82.6371 80.0154 82.6357C80.7247 82.6355 81.4049 82.3659 81.9066 81.8863C82.4082 81.4067 82.6901 80.7562 82.6905 80.0779C82.6905 79.3926 82.4144 78.7497 81.9066 78.2673C81.6594 78.0282 81.3648 77.8388 81.04 77.7102C80.7153 77.5815 80.3669 77.5162 80.0154 77.518C79.6638 77.5162 79.3154 77.5816 78.9907 77.7104C78.6659 77.8391 78.3713 78.0286 78.1242 78.2677C77.8746 78.5047 77.6769 78.7868 77.5424 79.0975C77.4079 79.4083 77.3393 79.7415 77.3407 80.0779ZM80.9867 78.4196C81.3395 78.568 81.5176 78.854 81.5176 79.2606C81.5176 79.4696 81.4716 79.6452 81.3778 79.7829C81.3105 79.8819 81.2151 79.9622 81.1077 80.0318C81.1921 80.0795 81.2667 80.1365 81.322 80.2025C81.3987 80.2975 81.443 80.4498 81.4486 80.6568L81.4656 81.0948C81.4716 81.2121 81.4792 81.3018 81.4984 81.3568C81.5176 81.4374 81.5538 81.4888 81.6002 81.5051L81.648 81.5271V81.7267H80.9544L80.9314 81.6884C80.9106 81.6457 80.8952 81.6009 80.8853 81.5548C80.8711 81.4662 80.8628 81.3767 80.8606 81.2871L80.8317 80.7428C80.824 80.5541 80.7571 80.4372 80.6306 80.3745C80.5518 80.3398 80.4218 80.3235 80.2454 80.3235H79.2698V81.7267H78.6474V78.3023H80.3106C80.5824 78.3023 80.8108 78.3406 80.9867 78.4196ZM79.2698 79.7992H80.2625C80.4619 79.7992 80.6208 79.7646 80.7341 79.6933C80.8376 79.6216 80.8875 79.4916 80.8875 79.3025C80.8875 79.0976 80.8163 78.9636 80.6668 78.8923C80.5846 78.854 80.4695 78.832 80.3238 78.832H79.2702L79.2698 79.7992Z" fill="#0071D1"/>
</svg>
