<?xml version="1.0" encoding="UTF-8"?>
<svg id="Layer_1" xmlns="http://www.w3.org/2000/svg" xmlns:xlink="http://www.w3.org/1999/xlink" version="1.1" viewBox="0 0 178 105">
  <!-- Generator: Adobe Illustrator 29.5.1, SVG Export Plug-In . SVG Version: 2.1.0 Build 141)  -->
  <defs>
    <style>
      .st0 {
        fill: none;
      }

      .st1 {
        fill: url(#linear-gradient1);
      }

      .st2 {
        fill: url(#linear-gradient);
      }

      .st3 {
        clip-path: url(#clippath);
      }

      .st4 {
        fill: #0081fb;
      }
    </style>
    <clipPath id="clippath">
      <rect class="st0" width="178" height="105"/>
    </clipPath>
    <linearGradient id="linear-gradient" x1="11.7" y1="55.2" x2="48.9" y2="53.3" gradientTransform="translate(0 106) scale(1 -1)" gradientUnits="userSpaceOnUse">
      <stop offset="0" stop-color="#0064e1"/>
      <stop offset=".4" stop-color="#0064e1"/>
      <stop offset=".8" stop-color="#0073ee"/>
      <stop offset="1" stop-color="#0082fb"/>
    </linearGradient>
    <linearGradient id="linear-gradient1" x1="7.8" y1="46.1" x2="7.8" y2="59.8" gradientTransform="translate(0 106) scale(1 -1)" gradientUnits="userSpaceOnUse">
      <stop offset="0" stop-color="#0082fb"/>
      <stop offset="1" stop-color="#0064e0"/>
    </linearGradient>
  </defs>
  <g class="st3">
    <g>
      <path class="st4" d="M5.8,57.5c0,2.1.5,3.6,1,4.6.8,1.3,1.9,1.8,3.1,1.8s2.9-.4,5.6-4.1c2.1-3,4.7-7.1,6.4-9.8l2.9-4.4c2-3.1,4.3-6.5,7-8.8,2.2-1.9,4.5-2.9,6.9-2.9,4,0,7.7,2.3,10.6,6.6,3.2,4.7,4.7,10.6,4.7,16.8s-.7,6.3-1.9,8.4c-1.2,2-3.5,4.1-7.3,4.1v-5.8c3.3,0,4.1-3,4.1-6.5,0-5-1.2-10.5-3.7-14.4-1.8-2.8-4.2-4.5-6.7-4.5s-5,2.1-7.6,5.9c-1.3,2-2.7,4.4-4.3,7.2l-1.7,3c-3.4,6.1-4.3,7.4-6,9.7-3,4-5.6,5.5-8.9,5.5s-6.5-1.7-8.1-4.3c-1.3-2.1-1.9-4.9-1.9-8.1l5.8.2Z"/>
      <path class="st2" d="M4.6,40.8c2.7-4.1,6.5-7,11-7s5.1.8,7.8,2.9c2.9,2.4,6,6.3,9.9,12.7l1.4,2.3c3.3,5.6,5.3,8.5,6.4,9.8,1.4,1.7,2.4,2.3,3.7,2.3,3.3,0,4.1-3,4.1-6.5l5.1-.2c0,3.6-.7,6.3-1.9,8.4-1.2,2-3.5,4.1-7.3,4.1s-4.5-.5-6.9-2.7c-1.8-1.7-3.9-4.7-5.6-7.5l-4.8-8.1c-2.4-4.1-4.7-7.1-5.9-8.5-1.4-1.5-3.2-3.3-6-3.3s-4.3,1.6-5.9,4.1l-5-2.9Z"/>
      <path class="st1" d="M15.5,39.7c-2.3,0-4.3,1.6-5.9,4.1-2.3,3.5-3.7,8.7-3.7,13.7s.5,3.6,1,4.6l-5,3.3c-1.3-2.1-1.9-4.9-1.9-8.1,0-5.8,1.6-11.8,4.6-16.4,2.7-4.1,6.5-7,11-7v5.9Z"/>
      <path d="M65.3,35h6.7l11.5,20.8,11.5-20.8h6.6v34.1h-5.5v-26.1l-10.1,18.1h-5.2l-10.1-18.1v26.1h-5.5v-34.1ZM118.9,47.7c-3.9,0-6.3,3-6.9,6.6h13.4c-.3-3.8-2.5-6.6-6.5-6.6ZM106.5,56.4c0-7.7,5-13.4,12.4-13.4s11.7,5.6,11.7,13.8v1.5h-18.7c.7,4,3.3,6.7,7.6,6.7s5.6-1,7.6-2.9l2.9,3.6c-2.8,2.5-6.3,4-10.7,4-8.1,0-12.9-5.9-12.9-13.2ZM137.3,48.2h-5.1v-4.5h5.1v-7.5h5.3v7.5h7.7v4.5h-7.7v11.4c0,3.9,1.2,5.3,4.3,5.3s2.2-.1,3.4-.3v4.5c-1.5.4-2.9.6-4.4.6-5.7,0-8.6-3.1-8.6-9.4v-12.1ZM172.7,52.6c-1.1-2.7-3.4-4.7-6.9-4.7s-7.5,3.2-7.5,8.5,2.7,8.5,7.2,8.5,6.1-2.1,7.2-4.7v-7.6ZM178,69.1h-5.2v-3.6c-1.5,2.1-4.1,4.2-8.4,4.2-6.9,0-11.5-5.8-11.5-13.3s4.7-13.3,11.8-13.3,6.3,1.4,8.1,3.9v-3.3h5.2v25.4Z"/>
    </g>
  </g>
</svg>