<svg width="80" height="105" viewBox="0 0 80 105" fill="none" xmlns="http://www.w3.org/2000/svg">
<path d="M80 12H0V92H80V12Z" fill="#AAFF89"/>
<path d="M33.818 45.2659V36.0667L19.1335 54.2007H26.5832L33.818 45.2659Z" fill="#231F20"/>
<path d="M41.5586 56.1496H17.7964V61.9392H41.5586V56.1496Z" fill="#231F20"/>
<path d="M59.8586 56.1496H51.2505V61.9392H59.8586V56.1496Z" fill="#231F20"/>
<path d="M55.7979 74.7185H43.5098V80.5081H55.7979V74.7185Z" fill="#231F20"/>
<path d="M41.5594 63.8904H35.7698V80.5082H41.5594V63.8904Z" fill="#231F20"/>
<path d="M44.2964 23.6644L43.5098 24.6392V34.5807V34.5896L49.1601 27.6029L44.2964 23.6644Z" fill="#231F20"/>
<path d="M41.5587 26.5081L35.7698 33.657V54.2007H41.5587V26.5081Z" fill="#231F20"/>
<path d="M49.2994 30.5407L43.5098 37.6903V72.7674H49.2994V30.5407Z" fill="#231F20"/>
<path d="M33.8096 74.7185H28.02V80.5081H33.8096V74.7185Z" fill="#231F20"/>
</svg>
